<?xml version="1.0" encoding="iso-8859-1"?>
<!-- Generator: Adobe Illustrator 19.0.0, SVG Export Plug-In . SVG Version: 6.00 Build 0)  -->
<svg version="1.1" id="Capa_1"
	xmlns="http://www.w3.org/2000/svg"
	xmlns:xlink="http://www.w3.org/1999/xlink" x="0px" y="0px" viewBox="0 0 490.445 490.445" style="enable-background:new 0 0 490.445 490.445;" xml:space="preserve">
	<g>
		<path d="M469.655,185.773c-9.166-15.625-26.123-25.332-44.255-25.332c-9.082,0-18.04,2.44-25.907,7.056
		c-20.816,12.213-29.823,36.939-23.113,59.086l-114.825,67.365l56.603-157.622c1.84,0.201,3.69,0.314,5.55,0.314
		c21.568,0,40.959-13.644,48.252-33.951c9.554-26.605-4.318-56.023-30.923-65.578c-5.594-2.009-11.423-3.027-17.325-3.027
		c-21.568,0-40.959,13.644-48.252,33.951c-8.156,22.716,0.772,47.471,20.113,60.174l-66.326,184.693l-59.965,35.181l36.08-245.749
		c23.232-2.117,42.647-20.157,46.092-43.615c4.104-27.97-15.31-54.064-43.277-58.17C205.697,0.185,203.174,0,200.681,0
		c-25.221,0-47.006,18.841-50.673,43.825c-1.989,13.549,1.417,27.062,9.59,38.048c5.73,7.701,13.324,13.506,22.018,16.98
		l-38.878,264.803l-49.751,29.188L79.39,121.271c22.209-6.485,37.991-27.539,36.843-51.645c-1.344-28.2-25.163-50.123-53.648-48.77
		c-13.68,0.652-26.286,6.591-35.497,16.724S13.162,60.826,13.815,74.505c1.149,24.11,18.72,43.612,41.603,47.929L69.642,406.54
		l-10.519,6.171c-5.716,3.354-7.632,10.707-4.278,16.423c2.234,3.809,6.244,5.93,10.362,5.93c1.966,0,3.952-0.5,5.786-1.515
		l2.144,42.811c0.321,6.416,5.623,11.4,11.976,11.4c0.202,0,0.406-0.005,0.609-0.015c6.619-0.332,11.717-5.966,11.386-12.585
		l-2.768-55.284l43.927-25.772l-10.771,73.363c-0.962,6.558,3.573,12.653,10.13,13.616c0.591,0.087,1.178,0.129,1.758,0.129
		c5.856,0,10.982-4.293,11.858-10.259l13.569-92.423l51.775-30.375l-45.331,126.231c-2.24,6.237,1.001,13.109,7.238,15.35
		c1.34,0.482,2.709,0.709,4.055,0.709c4.921,0,9.536-3.05,11.295-7.947L248.894,329.2l139.638-81.922
		c9.56,9.885,22.896,15.71,36.938,15.71c9.08,0,18.038-2.439,25.904-7.056C475.757,241.628,483.957,210.154,469.655,185.773z
		 M298.048,76.146c3.88-10.804,14.193-18.063,25.664-18.063c3.13,0,6.229,0.544,9.214,1.615
		c14.15,5.082,21.527,20.729,16.446,34.879c-3.88,10.804-14.193,18.063-25.664,18.063c-3.129,0-6.228-0.543-9.213-1.615
		C300.345,105.944,292.967,90.297,298.048,76.146z M178.854,67.548c-4.347-5.843-6.158-13.03-5.1-20.236
		C175.704,34.021,187.28,24,200.681,24c1.33,0,2.679,0.1,4.011,0.295c14.875,2.184,25.2,16.062,23.017,30.938
		c-1.951,13.29-13.527,23.312-26.928,23.312c-1.331,0-2.68-0.1-4.011-0.295C189.564,77.192,183.201,73.392,178.854,67.548z
		 M37.787,73.362c-0.347-7.274,2.16-14.249,7.059-19.639c4.899-5.389,11.604-8.548,18.88-8.895c0.444-0.021,0.889-0.031,1.329-0.031
		c14.561,0,26.51,11.407,27.204,25.971c0.716,15.018-10.921,27.817-25.939,28.533C51.175,100.045,38.503,88.366,37.787,73.362z
		 M439.231,235.233c-4.188,2.457-8.945,3.756-13.76,3.756c-9.652,0-18.678-5.164-23.555-13.475
		c-7.607-12.969-3.246-29.709,9.721-37.317c4.189-2.457,8.947-3.756,13.763-3.756c9.653,0,18.678,5.163,23.554,13.476
		C456.561,210.885,452.198,227.625,439.231,235.233z"/>
	</g>
	<g>
	</g>
	<g>
	</g>
	<g>
	</g>
	<g>
	</g>
	<g>
	</g>
	<g>
	</g>
	<g>
	</g>
	<g>
	</g>
	<g>
	</g>
	<g>
	</g>
	<g>
	</g>
	<g>
	</g>
	<g>
	</g>
	<g>
	</g>
	<g>
	</g>
</svg>
